<svg xmlns="http://www.w3.org/2000/svg" width="349.34" height="239.059" viewBox="0 0 349.34 239.059"><defs><style>.a{fill:#fdf4f4;}.b{fill:#f0bc5e;}.c{fill:#fbaa33;}</style></defs><g transform="translate(-15 -2220.778)"><ellipse class="a" cx="174.67" cy="44.645" rx="174.67" ry="44.645" transform="translate(15 2370.546)"/><g transform="translate(78.67 2220.778)"><path class="b" d="M346.911,409.185l-6.728-40.366,6.554-9.029L333.455,352l-13.281,7.79,6.554,9.029L320,409.185Zm0,0" transform="translate(-185.446 -203.991)"/><path class="b" d="M296.366,96A40.41,40.41,0,0,0,256,136.366v14.993h3.149a13.369,13.369,0,0,1,10.307-4.9h53.822a13.369,13.369,0,0,1,10.307,4.9h3.149V136.366A40.41,40.41,0,0,0,296.366,96Zm0,0" transform="translate(-148.357 -55.634)"/><path class="b" d="M53.822,107.643a53.822,53.822,0,1,1,53.822-53.822A53.885,53.885,0,0,1,53.822,107.643Zm0,0"/><path d="M190.307,252.388l-25.479-5.88v-6.624a27.086,27.086,0,0,0,6.452-7.518h3.64a16.819,16.819,0,1,0,0-33.639V192h-6.728v1.877a19.721,19.721,0,0,1-8.121,4.231c.131-.128.276-.238.407-.366l-4.757-4.757a19.682,19.682,0,0,1-9.106,5.123c.131-.128.276-.238.407-.366l-4.757-4.757a19.74,19.74,0,0,1-13.863,5.742h-.578V192H121.1v6.728a16.819,16.819,0,1,0,0,33.639h3.64a27.031,27.031,0,0,0,6.452,7.518v6.624l-25.479,5.88a23.429,23.429,0,0,0-4.8,1.711V235.73a10.1,10.1,0,0,0-10.092-10.092H10.092A10.1,10.1,0,0,0,0,235.73v60.549a10.1,10.1,0,0,0,10.092,10.092H37V313.1H30.275v6.728H208.559V275.333A23.437,23.437,0,0,0,190.307,252.388Zm-56.517.427,8.2,6.15L133.7,263.94l-1.784-10.694Zm28.438,0,2.372.549-2.134,10.663-8.436-5.062Zm22.783-37.268a10.1,10.1,0,0,1-10.092,10.092h-.885a26.754,26.754,0,0,0,.885-6.728V205.455A10.1,10.1,0,0,1,185.012,215.547ZM121.1,225.639a10.092,10.092,0,0,1,0-20.183v13.455a26.753,26.753,0,0,0,.885,6.728Zm6.728-6.728V205.455h.578a26.29,26.29,0,0,0,9.513-1.82v1.82h3.942a26.29,26.29,0,0,0,9.513-1.82v1.82h3.942a26.474,26.474,0,0,0,12.877-3.4v16.857a20.084,20.084,0,0,1-1.178,6.728H148.009v6.728h15a20.155,20.155,0,0,1-35.186-13.455Zm20.183,26.911a26.726,26.726,0,0,0,10.092-1.981V247.5l-10.092,7.569L137.918,247.5v-3.663A26.726,26.726,0,0,0,148.009,245.822ZM10.092,299.643a3.366,3.366,0,0,1-3.364-3.364V235.73a3.366,3.366,0,0,1,3.364-3.364H90.824a3.366,3.366,0,0,1,3.364,3.364v60.549a3.366,3.366,0,0,1-3.364,3.364H63.913v-6.728a13.455,13.455,0,1,0-26.911,0v6.728Zm53.822,6.728H87.46V313.1H63.913ZM43.73,292.916a6.728,6.728,0,1,1,13.455,0V313.1H43.73Zm158.1,20.183H185.012v-37h-6.728v37H117.735v-37h-6.728v37H94.188v-7.347a10.078,10.078,0,0,0,6.728-9.472V261.915a16.811,16.811,0,0,1,6.307-2.968l18.125-4.18,3.336,20.03,19.326-11.6,19.181,11.511,3.965-19.833,17.641,4.07a16.741,16.741,0,0,1,13.035,16.386Zm0,0" transform="translate(0 -111.268)"/><path d="M116.549,87.3a10.078,10.078,0,0,0-6.9-9.573L96.366,73.3V68.915a16.752,16.752,0,0,0,6.728-13.368V48.819a16.819,16.819,0,1,0-33.639,0v6.728a16.742,16.742,0,0,0,6.728,13.368V73.3L62.9,77.732A10.081,10.081,0,0,0,56,87.3V106h60.549ZM76.183,48.819a10.092,10.092,0,0,1,20.183,0v6.728a10.092,10.092,0,0,1-20.183,0Zm33.639,50.458H62.728V87.3a3.357,3.357,0,0,1,2.3-3.191l17.882-5.957v-6.13a16.81,16.81,0,0,0,6.728,0v6.13l17.882,5.957a3.361,3.361,0,0,1,2.3,3.191Zm0,0" transform="translate(-32.453 -18.545)"/><path d="M296,48h6.728v6.728H296Zm0,0" transform="translate(-171.537 -27.817)"/><path d="M344,48h6.728v6.728H344Zm0,0" transform="translate(-199.354 -27.817)"/><path d="M392,48h6.728v6.728H392Zm0,0" transform="translate(-227.171 -27.817)"/></g><ellipse class="c" cx="33.891" cy="33.891" rx="33.891" ry="33.891" transform="translate(266.229 2375.421)"/></g></svg>