<svg xmlns="http://www.w3.org/2000/svg" xmlns:xlink="http://www.w3.org/1999/xlink" width="110.428" height="110.428" viewBox="0 0 110.428 110.428"><defs><style>.a{fill:#e8e8e8;stroke:#e0e0e0;}.b{clip-path:url(#a);}.c{fill:#303c42;}</style><clipPath id="a"><circle class="a" cx="55.214" cy="55.214" r="55.214" transform="translate(874 3694)"/></clipPath></defs><g class="b" transform="translate(-874 -3694)"><g transform="translate(874 3694)"><g transform="translate(32.567 19.626)"><path class="c" d="M95.934,65.415a3.231,3.231,0,0,0-2.126-2.325L77.935,57.8,89.208,35.253a3.235,3.235,0,0,0-5.181-3.734L51.674,63.87a3.232,3.232,0,0,0,1.264,5.355l15.873,5.292L57.538,97.062a3.235,3.235,0,0,0,5.181,3.734L95.071,68.445A3.238,3.238,0,0,0,95.934,65.415Z" transform="translate(-50.726 -30.57)"/></g><g transform="translate(6.47)"><path class="c" d="M58.822,0A55.61,55.61,0,0,0,16.549,19.957V16.392a3.235,3.235,0,0,0-6.47,0V30.135c0,3.087,3.988,3.529,3.235,3.235.066,0,.133,0,.2-.006l12.941-.8a3.235,3.235,0,1,0-.4-6.458l-6.555.408a48.694,48.694,0,0,1,88.065,28.7,3.235,3.235,0,1,0,6.47,0A55.429,55.429,0,0,0,58.822,0Z" transform="translate(-10.078)"/></g><g transform="translate(0 51.979)"><path class="c" d="M100.523,106.046l-12.941.8a3.235,3.235,0,0,0-3.03,3.428,3.271,3.271,0,0,0,3.428,3.03l6.555-.408A48.694,48.694,0,0,1,6.47,84.2,3.235,3.235,0,0,0,0,84.2,55.429,55.429,0,0,0,55.214,139.41a55.61,55.61,0,0,0,42.273-19.957v3.565a3.235,3.235,0,0,0,6.47,0V109.275A3.382,3.382,0,0,0,100.523,106.046Z" transform="translate(0 -80.961)"/></g></g></g></svg>