<svg xmlns="http://www.w3.org/2000/svg" xmlns:xlink="http://www.w3.org/1999/xlink" width="512" height="512" viewBox="0 0 512 512"><defs><style>.a{fill:#fff;}.b{clip-path:url(#a);}.c{fill:#5a5a5a;}.d{fill:#ffd86e;}.e{fill:#ffb509;}.f{fill:#838383;}.g{fill:#acacac;}.h{fill:#9c9c9c;}.i{fill:#64dcfc;}.j{fill:#00d1fc;}.k{fill:#0396fd;}.l{fill:#0077f0;}.m{fill:#e7e7e7;}.n{fill:#ff5770;}.o{fill:#80e0dc;}.p{fill:#ff435f;}.q{fill:#00a8b0;}</style><clipPath id="a"><rect class="a" width="512" height="512" transform="translate(151 2600)"/></clipPath></defs><g class="b" transform="translate(-151 -2600)"><g transform="translate(201.394 2650.623)"><path class="c" d="M184.176,417.711h114.9v47.555h-114.9Zm0,0" transform="translate(-36.255 -82.227)"/><path class="d" d="M389.653,342.145H21.086A21.085,21.085,0,0,1,0,321.059V21.086A21.085,21.085,0,0,1,21.086,0H389.653a21.085,21.085,0,0,1,21.086,21.086V321.059A21.085,21.085,0,0,1,389.653,342.145Zm0,0"/><path class="e" d="M499.933,21.09V321.06a21.085,21.085,0,0,1-21.086,21.086H453.09a21.085,21.085,0,0,0,21.086-21.086V21.09A21.085,21.085,0,0,0,453.09,0h25.757A21.085,21.085,0,0,1,499.933,21.09Zm0,0" transform="translate(-89.191 -0.001)"/><path class="f" d="M410.739,362.754H0v29.713a21.085,21.085,0,0,0,21.086,21.086H389.653a21.085,21.085,0,0,0,21.086-21.086Zm0,0" transform="translate(0 -71.408)"/><path class="c" d="M499.933,362.75v29.717a21.085,21.085,0,0,1-21.086,21.086H453.09a21.085,21.085,0,0,0,21.086-21.086V362.75Zm0,0" transform="translate(-89.191 -71.407)"/><path class="g" d="M411.322,71.932H.57V21.086A21.085,21.085,0,0,1,21.653,0H390.236a21.085,21.085,0,0,1,21.086,21.086Zm0,0" transform="translate(-0.112)"/><path class="h" d="M500.4,21.083V71.936H474.175V21.083A21.085,21.085,0,0,0,453.086,0h26.231A21.084,21.084,0,0,1,500.4,21.083Zm0,0" transform="translate(-89.19 -0.001)"/><path class="f" d="M326.168,503.1H136.8a4.133,4.133,0,0,1-4.132-4.132V485.575a16.446,16.446,0,0,1,16.446-16.446H313.854A16.446,16.446,0,0,1,330.3,485.575v13.393A4.133,4.133,0,0,1,326.168,503.1Zm0,0" transform="translate(-26.117 -92.348)"/><path class="c" d="M370.12,485.572v13.4a4.134,4.134,0,0,1-4.135,4.132H351.4V485.572a16.446,16.446,0,0,0-16.439-16.443H353.68A16.442,16.442,0,0,1,370.12,485.572Zm0,0" transform="translate(-65.936 -92.348)"/><g transform="translate(21.505 98.858)"><path class="f" d="M52.236,174.012a6.007,6.007,0,0,1-4.26-1.763L28.54,152.81a6.021,6.021,0,0,1,0-8.518l19.436-19.436a6.024,6.024,0,0,1,8.521,8.518L41.318,148.553,56.5,163.731a6.022,6.022,0,0,1-4.26,10.281Zm0,0" transform="translate(-26.775 -123.089)"/><path class="f" d="M114.859,174.012a6.022,6.022,0,0,1-4.26-10.281l15.178-15.178L110.6,133.374a6.024,6.024,0,0,1,8.521-8.518l19.436,19.436a6.021,6.021,0,0,1,0,8.518L119.12,172.249A6.007,6.007,0,0,1,114.859,174.012Zm0,0" transform="translate(-42.929 -123.089)"/><path class="f" d="M77.246,174.014a6.031,6.031,0,0,1-5.606-8.229l15.272-38.874a6.024,6.024,0,1,1,11.213,4.408L82.852,170.19A6.023,6.023,0,0,1,77.246,174.014Zm0,0" transform="translate(-35.524 -123.088)"/><path class="f" d="M78.932,228.828H37.168a6.024,6.024,0,1,1,0-12.047H78.932a6.024,6.024,0,1,1,0,12.047Zm0,0" transform="translate(-27.635 -141.532)"/><path class="f" d="M190.944,228.828H117.516a6.024,6.024,0,0,1,0-12.047h73.429a6.024,6.024,0,0,1,0,12.047Zm0,0" transform="translate(-43.452 -141.532)"/><path class="f" d="M54.96,261.383H37.168a6.024,6.024,0,1,1,0-12.047H54.96a6.024,6.024,0,1,1,0,12.047Zm0,0" transform="translate(-27.635 -147.94)"/><path class="f" d="M191.536,261.383H180.7a6.024,6.024,0,0,1,0-12.047h10.836a6.024,6.024,0,1,1,0,12.047Zm0,0" transform="translate(-55.89 -147.94)"/><path class="f" d="M139.621,261.383H86.406a6.024,6.024,0,0,1,0-12.047h53.215a6.024,6.024,0,0,1,0,12.047Zm0,0" transform="translate(-37.328 -147.94)"/><path class="f" d="M238.963,261.383h-20.3a6.024,6.024,0,0,1,0-12.047h20.3a6.024,6.024,0,1,1,0,12.047Zm0,0" transform="translate(-63.364 -147.94)"/><path class="f" d="M190.316,157.809H168.91a6.024,6.024,0,0,1,0-12.047h21.406a6.024,6.024,0,0,1,0,12.047Zm0,0" transform="translate(-53.569 -127.551)"/><path class="f" d="M356.016,157.809H225.41a6.024,6.024,0,0,1,0-12.047H356.016a6.024,6.024,0,0,1,0,12.047Zm0,0" transform="translate(-64.691 -127.551)"/><path class="f" d="M350.358,191.774h-52.9a6.024,6.024,0,0,1,0-12.047h52.9a6.024,6.024,0,0,1,0,12.047Zm0,0" transform="translate(-78.873 -134.237)"/><path class="f" d="M268.3,191.774H250.11a6.024,6.024,0,0,1,0-12.047H268.3a6.024,6.024,0,0,1,0,12.047Zm0,0" transform="translate(-69.553 -134.237)"/><path class="f" d="M213.462,191.774H168.906a6.024,6.024,0,0,1,0-12.047h44.556a6.024,6.024,0,1,1,0,12.047Zm0,0" transform="translate(-53.568 -134.237)"/><path class="f" d="M142.526,293.668H100.762a6.024,6.024,0,1,1,0-12.047h41.764a6.024,6.024,0,1,1,0,12.047Zm0,0" transform="translate(-40.154 -154.295)"/><path class="f" d="M69.256,293.668H37.168a6.024,6.024,0,1,1,0-12.047H69.256a6.024,6.024,0,1,1,0,12.047Zm0,0" transform="translate(-27.635 -154.295)"/><path class="f" d="M233.652,293.668H179.1a6.024,6.024,0,1,1,0-12.047h54.555a6.024,6.024,0,1,1,0,12.047Zm0,0" transform="translate(-55.574 -154.295)"/></g><path class="i" d="M296.664,263.391H430.912v45.463H296.664Zm0,0" transform="translate(-58.398 -51.849)"/><path class="i" d="M296.664,350.871H430.912V393.03H296.664Zm0,0" transform="translate(-58.398 -69.069)"/><path class="j" d="M444.051,263.391h15.875v45.463H444.051Zm0,0" transform="translate(-87.412 -51.849)"/><path class="j" d="M444.051,350.871h15.875V393.03H444.051Zm0,0" transform="translate(-87.412 -69.069)"/><path class="k" d="M437.835,265.365H281.355a5.992,5.992,0,0,1-5.992-5.992V229.242a5.992,5.992,0,0,1,5.992-5.992H437.835a5.992,5.992,0,0,1,5.992,5.992v30.131A5.992,5.992,0,0,1,437.835,265.365Zm0,0" transform="translate(-54.205 -43.947)"/><path class="k" d="M437.835,349.486H281.355a5.992,5.992,0,0,1-5.992-5.992V313.363a5.992,5.992,0,0,1,5.992-5.992H437.835a5.992,5.992,0,0,1,5.992,5.992v30.131A5.992,5.992,0,0,1,437.835,349.486Zm0,0" transform="translate(-54.205 -60.506)"/><path class="k" d="M437.835,433.607H281.355a5.992,5.992,0,0,1-5.992-5.992V397.484a5.992,5.992,0,0,1,5.992-5.992H437.835a5.992,5.992,0,0,1,5.992,5.992v30.131A5.992,5.992,0,0,1,437.835,433.607Zm0,0" transform="translate(-54.205 -77.065)"/><path class="l" d="M480.241,229.242v30.131a5.992,5.992,0,0,1-5.992,5.992h-13.9a5.99,5.99,0,0,0,5.992-5.992V229.242a5.99,5.99,0,0,0-5.992-5.992h13.9A5.992,5.992,0,0,1,480.241,229.242Zm0,0" transform="translate(-90.619 -43.947)"/><path class="l" d="M480.241,313.359V343.49a5.988,5.988,0,0,1-5.992,6h-13.9a5.986,5.986,0,0,0,5.992-6V313.359a5.99,5.99,0,0,0-5.992-5.992h13.9A5.992,5.992,0,0,1,480.241,313.359Zm0,0" transform="translate(-90.619 -60.505)"/><path class="l" d="M480.241,397.488v30.131a5.992,5.992,0,0,1-5.992,5.992h-13.9a5.99,5.99,0,0,0,5.992-5.992V397.488a5.986,5.986,0,0,0-5.992-5.992h13.9A5.988,5.988,0,0,1,480.241,397.488Zm0,0" transform="translate(-90.619 -77.066)"/><path class="m" d="M331.575,254.016H301.742a6.024,6.024,0,0,1,0-12.047h29.836a6.024,6.024,0,1,1,0,12.047Zm0,0" transform="translate(-58.212 -47.632)"/><path class="m" d="M445.462,254.016H403.344a6.024,6.024,0,0,1,0-12.047h42.115a6.024,6.024,0,0,1,0,12.047Zm0,0" transform="translate(-78.213 -47.632)"/><path class="m" d="M374.759,254.016h-9.654a6.024,6.024,0,0,1,0-12.047h9.654a6.024,6.024,0,0,1,0,12.047Zm0,0" transform="translate(-70.685 -47.632)"/><path class="m" d="M331.575,338.137H301.742a6.024,6.024,0,0,1,0-12.047h29.836a6.024,6.024,0,1,1,0,12.047Zm0,0" transform="translate(-58.212 -64.191)"/><path class="m" d="M445.462,338.137H403.344a6.024,6.024,0,0,1,0-12.047h42.115a6.024,6.024,0,0,1,0,12.047Zm0,0" transform="translate(-78.213 -64.191)"/><path class="m" d="M374.759,338.137h-9.654a6.024,6.024,0,0,1,0-12.047h9.654a6.024,6.024,0,0,1,0,12.047Zm0,0" transform="translate(-70.685 -64.191)"/><path class="m" d="M331.575,422.258H301.742a6.024,6.024,0,0,1,0-12.047h29.836a6.024,6.024,0,1,1,0,12.047Zm0,0" transform="translate(-58.212 -80.75)"/><path class="m" d="M445.462,422.258H403.344a6.024,6.024,0,0,1,0-12.047h42.115a6.024,6.024,0,0,1,0,12.047Zm0,0" transform="translate(-78.213 -80.75)"/><path class="m" d="M374.759,422.258h-9.654a6.024,6.024,0,0,1,0-12.047h9.654a6.024,6.024,0,0,1,0,12.047Zm0,0" transform="translate(-70.685 -80.75)"/><path class="n" d="M58.264,41.623A12,12,0,1,1,46.27,29.629,11.993,11.993,0,0,1,58.264,41.623Zm0,0" transform="translate(-6.747 -5.832)"/><path class="d" d="M115.937,41.623a11.994,11.994,0,1,1-11.994-11.994A11.991,11.991,0,0,1,115.937,41.623Zm0,0" transform="translate(-18.1 -5.832)"/><path class="o" d="M173.613,41.623a11.994,11.994,0,1,1-11.994-11.994A11.993,11.993,0,0,1,173.613,41.623Zm0,0" transform="translate(-29.454 -5.832)"/><path class="p" d="M59.171,41.627A11.985,11.985,0,0,1,38.91,50.3,11.981,11.981,0,0,0,46.9,29.642c.091-.009.191-.009.282-.009A11.985,11.985,0,0,1,59.171,41.627Zm0,0" transform="translate(-7.659 -5.833)"/><path class="e" d="M116.845,41.627A11.989,11.989,0,0,1,96.578,50.3a11.983,11.983,0,0,0,8-20.656,2.585,2.585,0,0,1,.273-.009A11.985,11.985,0,0,1,116.845,41.627Zm0,0" transform="translate(-19.011 -5.833)"/><path class="q" d="M174.524,41.627a11.992,11.992,0,0,1-20.27,8.672,11.981,11.981,0,0,0,7.994-20.656c.091-.009.191-.009.282-.009A11.993,11.993,0,0,1,174.524,41.627Zm0,0" transform="translate(-30.365 -5.833)"/></g></g></svg>