<svg xmlns="http://www.w3.org/2000/svg" xmlns:xlink="http://www.w3.org/1999/xlink" width="172" height="172" viewBox="0 0 172 172"><defs><style>.a{fill:#e8e8e8;stroke:#e0e0e0;}.b{clip-path:url(#a);}.c{fill:none;stroke:#303c42;stroke-linecap:round;stroke-linejoin:round;stroke-width:7.167px;}</style><clipPath id="a"><circle class="a" cx="86" cy="86" r="86" transform="translate(1355 3694)"/></clipPath></defs><g class="b" transform="translate(-1355 -3694)"><g transform="translate(1373.23 3707.474)"><g transform="translate(3.583 25.083)"><path class="c" d="M14.746,104.562c-7.033,2.233-11.163,4.968-11.163,7.87,0,7.7,28.745,25.117,64.187,25.117s64.187-17.414,64.187-25.117c0-2.9-4.13-5.581-11.163-7.87" transform="translate(-3.583 -42.663)"/><path class="c" d="M51.685,36.98A52.968,52.968,0,0,0,17.917,86.32v8.372s16.744,11.163,53.024,11.163,53.024-11.163,53.024-11.163V86.32A52.968,52.968,0,0,0,90.2,36.98" transform="translate(-6.754 -27.715)"/><path class="c" d="M75.25,80.9V33.456a8.372,8.372,0,0,1,8.372-8.372h0a8.372,8.372,0,0,1,8.372,8.372V80.9" transform="translate(-19.435 -25.083)"/><g transform="translate(44.652 5.581)"><path class="c" d="M72.582,32.25H60.917l2.791,33.489" transform="translate(-60.917 -32.25)"/><path class="c" d="M104.98,65.739,107.77,32.25H96.1" transform="translate(-68.7 -32.25)"/></g></g></g></g></svg>