<svg xmlns="http://www.w3.org/2000/svg" xmlns:xlink="http://www.w3.org/1999/xlink" width="100" height="100" viewBox="0 0 100 100"><defs><style>.a{fill:#ebebeb;}.b{clip-path:url(#a);}</style><clipPath id="a"><rect class="a" width="100" height="100"/></clipPath></defs><g class="b"><g transform="translate(16.872 16.872)"><g transform="translate(13.778)"><path d="M42.906,66.256H23.581A2.653,2.653,0,0,1,21.1,64.6a2.962,2.962,0,0,1,.276-3.037l6.073-7.454a7.574,7.574,0,0,0,2.209-6.35,8.967,8.967,0,0,0-3.313-6.073,14.119,14.119,0,0,1-5.521-11.319V2.761A2.608,2.608,0,0,1,23.581,0a2.608,2.608,0,0,1,2.761,2.761V30.367a8.376,8.376,0,0,0,3.313,6.9,14.55,14.55,0,0,1,5.521,9.938,15.216,15.216,0,0,1-3.313,10.767l-2.485,2.761H42.906a2.761,2.761,0,0,1,0,5.521Z" transform="translate(-20.796)"/></g><g transform="translate(27.607)"><path d="M63.752,66.256H44.427a2.761,2.761,0,1,1,0-5.521H57.955L55.47,57.974a15.216,15.216,0,0,1-3.313-10.767A14.22,14.22,0,0,1,57.4,37.269a7.94,7.94,0,0,0,3.589-6.9V2.761a2.761,2.761,0,1,1,5.521,0V30.367a14.119,14.119,0,0,1-5.521,11.319c-1.932,1.656-3.313,3.865-3.313,6.073a9.427,9.427,0,0,0,1.932,6.626l6.073,7.454a2.962,2.962,0,0,1,.276,3.037A2.186,2.186,0,0,1,63.752,66.256Z" transform="translate(-41.667)"/></g><g transform="translate(13.803)"><path d="M56.722,5.521H23.594a2.608,2.608,0,0,1-2.761-2.761A2.608,2.608,0,0,1,23.594,0H56.722a2.608,2.608,0,0,1,2.761,2.761A2.608,2.608,0,0,1,56.722,5.521Z" transform="translate(-20.833)"/></g><g transform="translate(46.931)"><path d="M73.594,27.607a2.608,2.608,0,0,1-2.761-2.761,2.608,2.608,0,0,1,2.761-2.761A11.075,11.075,0,0,0,84.637,11.043c0-4.141-1.656-5.521-11.043-5.521a2.608,2.608,0,0,1-2.761-2.761A2.608,2.608,0,0,1,73.594,0c5.8,0,16.564,0,16.564,11.043A16.613,16.613,0,0,1,73.594,27.607Z" transform="translate(-70.833)"/></g><path d="M16.564,27.607A16.613,16.613,0,0,1,0,11.043C0,0,10.767,0,16.564,0a2.608,2.608,0,0,1,2.761,2.761,2.608,2.608,0,0,1-2.761,2.761c-9.386,0-11.043,1.38-11.043,5.521A11.075,11.075,0,0,0,16.564,22.085a2.608,2.608,0,0,1,2.761,2.761A2.608,2.608,0,0,1,16.564,27.607Z"/></g></g></svg>